<svg xmlns="http://www.w3.org/2000/svg" width="127.099" height="42.16" viewBox="0 0 127.099 42.16"><defs><style>.a{fill:#fff;}</style></defs><path class="a" d="M509.766,319.766a17.139,17.139,0,0,1-6.827-7.257,24.606,24.606,0,0,1-2.4-11.3v-.028a24.518,24.518,0,0,1,2.4-11.281,17.071,17.071,0,0,1,6.827-7.229,20.739,20.739,0,0,1,10.462-2.527,20.057,20.057,0,0,1,8.931,1.92,16.372,16.372,0,0,1,6.3,5.281,15.547,15.547,0,0,1,2.776,7.681l.029.282h-8.444l-.114-.48a9.866,9.866,0,0,0-1.746-3.925,8.621,8.621,0,0,0-3.206-2.6,10.364,10.364,0,0,0-4.523-.932,9.873,9.873,0,0,0-5.753,1.68,10.834,10.834,0,0,0-3.764,4.758,18.418,18.418,0,0,0-1.331,7.342v.028a18.807,18.807,0,0,0,1.331,7.412,10.757,10.757,0,0,0,3.779,4.8,9.888,9.888,0,0,0,5.739,1.68,10.418,10.418,0,0,0,4.437-.9,8.671,8.671,0,0,0,3.263-2.612,10.4,10.4,0,0,0,1.861-4.137l.057-.282h8.444l-.029.311a15.468,15.468,0,0,1-2.791,7.681,16.364,16.364,0,0,1-6.312,5.266,20.177,20.177,0,0,1-8.931,1.906A20.641,20.641,0,0,1,509.766,319.766Z" transform="translate(-500.534 -280.148)"/><path class="a" d="M623.242,282.327h15.772a22.269,22.269,0,0,1,10.605,2.344,15.9,15.9,0,0,1,6.741,6.848,23.508,23.508,0,0,1,2.347,10.97v.056a24.242,24.242,0,0,1-2.333,11.07,16.174,16.174,0,0,1-6.741,7.031,21.7,21.7,0,0,1-10.62,2.429H623.242Zm14.742,33.688a12.864,12.864,0,0,0,6.512-1.525,9.729,9.729,0,0,0,4.022-4.518,17.7,17.7,0,0,0,1.374-7.4v-.056a16.565,16.565,0,0,0-1.4-7.173,9.831,9.831,0,0,0-4.065-4.447,12.857,12.857,0,0,0-6.44-1.511h-6.1v26.629Z" transform="translate(-582.952 -281.621)"/><path class="a" d="M722.6,282.327h8.988l6.526,29.2h.172l7.614-29.2h7.586l7.614,29.2h.172l6.526-29.2h8.988l-10.964,40.748H757.38L749.794,295.8h-.172l-7.614,27.278h-8.444Z" transform="translate(-649.688 -281.621)"/></svg>